<svg version="1.1" id="Layer_1" xmlns="http://www.w3.org/2000/svg" xmlns:xlink="http://www.w3.org/1999/xlink" x="0px" y="0px"
	 width="100%" viewBox="0 0 1600 700" enable-background="new 0 0 1600 700" xml:space="preserve">
<path fill="#D72406" opacity="1.000000" stroke="none" 
	d="
M989.000000,701.000000 
	C659.333313,701.000000 330.166656,701.000000 1.000000,701.000000 
	C1.000000,467.666656 1.000000,234.333328 1.000000,1.000000 
	C534.333313,1.000000 1067.666626,1.000000 1601.000000,1.000000 
	C1601.000000,234.333328 1601.000000,467.666656 1601.000000,701.000000 
	C1397.166626,701.000000 1193.333374,701.000000 989.000000,701.000000 
M774.377502,319.073975 
	C774.416138,319.273987 774.454712,319.473999 773.779419,319.424408 
	C772.342529,320.488861 770.905579,321.553345 769.390686,322.710297 
	C769.390686,322.710297 769.269836,322.716217 768.759583,321.924072 
	C768.510315,319.808746 768.052307,317.694183 768.044739,315.578003 
	C767.983704,298.487671 767.975586,281.396912 768.030457,264.306549 
	C768.042114,260.661072 767.094849,258.030212 762.872681,258.014282 
	C755.903809,257.987976 748.928223,257.847961 741.971680,258.140839 
	C740.611511,258.198090 739.325073,260.006317 738.042908,261.942719 
	C738.036743,314.810272 738.019409,367.677795 738.069275,420.545319 
	C738.071106,422.454803 738.734863,424.363617 739.537415,427.019104 
	C747.829346,427.281097 756.121216,427.543121 764.413147,427.805145 
	C764.420715,427.398163 764.428345,426.991150 764.793884,426.189423 
	C765.356201,425.770660 765.918518,425.351929 767.169861,424.427094 
	C767.450378,422.507507 767.967712,420.588776 767.974487,418.668243 
	C768.036072,401.257568 767.930176,383.845703 768.121460,366.436920 
	C768.141907,364.581848 769.747864,362.744202 771.269592,360.946625 
	C781.714111,367.117279 792.166992,373.273865 802.601501,379.461365 
	C828.333923,394.720215 854.050110,410.006531 879.802429,425.231567 
	C881.570557,426.276886 883.606079,428.851227 885.942200,425.593964 
	C886.287781,425.212189 886.932007,424.832703 886.934875,424.448395 
	C886.995667,416.412842 887.048706,408.375610 886.908386,400.342072 
	C886.889709,399.274353 885.816528,398.225037 884.789551,396.745667 
	C875.123657,390.908173 865.527649,384.950836 855.777466,379.257660 
	C834.237732,366.680603 812.620361,354.236511 790.609497,341.492004 
	C792.260315,340.480286 793.485657,339.678223 794.757202,338.957520 
	C821.964905,323.535919 849.178833,308.125061 876.388550,292.707001 
	C879.147705,291.143555 881.884460,289.770508 881.781799,285.735352 
	C881.578491,277.747620 881.757568,269.750763 881.684631,261.758514 
	C881.675415,260.747955 881.101624,259.742523 880.619934,258.187256 
	C872.547607,262.907928 864.983582,267.384827 857.369019,271.774231 
	C834.611389,284.892761 811.834045,297.977020 788.598022,310.765717 
	C786.734802,312.078308 784.871643,313.390900 782.708374,315.054840 
	C782.708374,315.054840 782.246399,315.064697 781.473816,315.091095 
	C779.778381,316.247711 778.082947,317.404297 776.346863,318.457794 
	C776.346863,318.457794 776.455933,318.477814 775.772400,318.374390 
	C775.355103,318.805847 774.937805,319.237335 774.377502,319.073975 
M736.989319,118.498642 
	C734.880676,118.331963 732.772339,118.024483 730.663391,118.020508 
	C711.082764,117.983620 691.501770,117.953735 671.921753,118.069016 
	C669.958740,118.080574 668.001526,119.064735 665.617310,120.136467 
	C665.364441,127.759056 665.044739,135.380890 664.958435,143.005371 
	C664.949463,143.796356 666.327393,144.603027 666.578857,145.822021 
	C666.516602,145.975525 666.408875,146.128433 666.406738,146.282745 
	C666.405212,146.403656 666.518250,146.617783 666.608337,146.633820 
	C667.403625,146.775330 668.204041,146.975662 669.005005,146.985001 
	C691.323914,147.245209 713.643066,147.495346 735.962891,147.633438 
	C736.309692,147.635574 736.665283,146.215546 737.817139,145.952454 
	C737.883301,147.611130 738.005981,149.269791 738.006958,150.928497 
	C738.018372,170.089279 738.007751,189.250076 738.011108,208.410858 
	C738.012390,215.905487 738.021790,215.909256 745.269104,215.917389 
	C750.267578,215.923004 755.285889,215.638947 760.258728,215.995102 
	C765.014404,216.335693 766.643494,214.801315 766.577209,209.861298 
	C766.313477,190.204102 766.456604,170.541473 766.449219,150.880844 
	C766.448608,149.106461 766.449158,147.332062 766.449158,145.225494 
	C774.591553,145.225494 782.060242,145.225708 789.528931,145.225449 
	C804.690918,145.224915 819.853760,145.292938 835.013794,145.122467 
	C836.620483,145.104401 839.589661,143.698624 839.596313,142.916595 
	C839.663025,135.156326 839.238586,127.391846 838.458618,118.918213 
	C836.546143,118.611862 834.634460,118.045563 832.721008,118.039291 
	C813.112000,117.974998 793.501465,117.882240 773.894531,118.092964 
	C769.416443,118.141098 767.845337,116.975510 767.908813,112.262917 
	C768.161743,93.488060 768.059570,74.707443 767.938416,55.929932 
	C767.925842,53.980110 766.913818,52.036739 765.797180,49.701317 
	C758.401794,49.420486 750.995605,49.299046 743.615112,48.798557 
	C739.243286,48.502094 737.892639,50.065102 737.935608,54.445389 
	C738.132507,74.514771 738.035278,94.587311 737.967224,114.658447 
	C737.962219,116.141937 737.354004,117.623367 736.989319,118.498642 
M712.546387,628.028870 
	C713.116089,628.324951 713.683533,628.874207 714.255798,628.879272 
	C722.856140,628.955139 731.457581,629.009155 740.056946,628.910645 
	C741.016846,628.899597 741.965698,627.926575 743.385559,626.973816 
	C744.601196,625.237488 746.039490,623.615295 746.996948,621.746643 
	C754.041504,607.997253 761.063354,594.234802 767.906982,580.384827 
	C769.276306,577.613708 770.902466,576.668335 774.000061,576.685364 
	C798.936401,576.822632 823.874146,576.831848 848.810364,576.685364 
	C852.005371,576.666626 853.470581,577.855225 854.791626,580.553162 
	C861.511841,594.277832 868.386047,607.927673 875.292114,621.560242 
	C876.324036,623.597229 877.810059,625.404236 879.548706,628.049011 
	C880.122314,628.338257 880.693787,628.875000 881.269775,628.879761 
	C890.193665,628.953735 899.118652,629.006104 908.041748,628.911621 
	C909.008545,628.901428 909.965332,627.949219 911.229614,626.882263 
	C910.900879,625.363953 910.855408,623.708008 910.195618,622.350647 
	C906.922913,615.617981 903.487854,608.964172 900.110413,602.282410 
	C877.141113,556.841003 854.118958,511.426056 831.291565,465.913422 
	C829.196960,461.737305 826.763062,460.047394 822.069702,460.340454 
	C815.434998,460.754700 808.750610,460.577515 802.095825,460.376831 
	C798.686462,460.274017 796.570740,461.389923 794.957642,464.501312 
	C767.693542,517.088074 740.332397,569.624512 713.069946,622.212097 
	C712.310608,623.676758 712.403870,625.583374 712.546387,628.028870 
M853.202271,145.499908 
	C853.204712,167.145966 853.287720,188.792603 853.138000,210.437607 
	C853.109863,214.508057 854.322693,216.168579 858.540955,215.988480 
	C864.690613,215.725937 870.862488,215.808121 877.019409,215.963379 
	C880.380249,216.048141 881.822571,214.896957 881.818420,211.370270 
	C881.755798,158.753571 881.755920,106.136742 881.822571,53.520046 
	C881.826904,50.119881 880.707458,48.684441 877.202148,48.786507 
	C871.212891,48.960896 865.194641,49.141907 859.226868,48.744404 
	C854.207031,48.410038 853.093323,50.421112 853.120789,55.085232 
	C853.296021,84.889252 853.205444,114.694832 853.202271,145.499908 
z"/>
<path fill="#FEFCFB" opacity="1.000000" stroke="none" 
	d="
M879.085999,627.317566 
	C877.810059,625.404236 876.324036,623.597229 875.292114,621.560242 
	C868.386047,607.927673 861.511841,594.277832 854.791626,580.553162 
	C853.470581,577.855225 852.005371,576.666626 848.810364,576.685364 
	C823.874146,576.831848 798.936401,576.822632 774.000061,576.685364 
	C770.902466,576.668335 769.276306,577.613708 767.906982,580.384827 
	C761.063354,594.234802 754.041504,607.997253 746.996948,621.746643 
	C746.039490,623.615295 744.601196,625.237488 742.686890,627.204285 
	C732.025330,627.384521 722.062439,627.334229 712.099609,627.283936 
	C712.403870,625.583374 712.310608,623.676758 713.069946,622.212097 
	C740.332397,569.624512 767.693542,517.088074 794.957642,464.501312 
	C796.570740,461.389923 798.686462,460.274017 802.095825,460.376831 
	C808.750610,460.577515 815.434998,460.754700 822.069702,460.340454 
	C826.763062,460.047394 829.196960,461.737305 831.291565,465.913422 
	C854.118958,511.426056 877.141113,556.841003 900.110413,602.282410 
	C903.487854,608.964172 906.922913,615.617981 910.195618,622.350647 
	C910.855408,623.708008 910.900879,625.363953 910.611877,627.182007 
	C899.691406,627.426941 889.388733,627.372253 879.085999,627.317566 
M783.625977,550.529968 
	C802.328003,550.529968 821.030090,550.529968 840.351013,550.529968 
	C830.673828,530.939209 821.347717,512.059021 811.606445,492.338531 
	C801.883911,512.052551 792.569824,530.938477 783.625977,550.529968 
z"/>
<path fill="#FEFCFB" opacity="1.000000" stroke="none" 
	d="
M782.246399,315.064697 
	C782.246399,315.064697 782.708374,315.054840 783.164612,314.781921 
	C785.435364,313.364227 787.249878,312.219452 789.064392,311.074646 
	C811.834045,297.977020 834.611389,284.892761 857.369019,271.774231 
	C864.983582,267.384827 872.547607,262.907928 880.619934,258.187256 
	C881.101624,259.742523 881.675415,260.747955 881.684631,261.758514 
	C881.757568,269.750763 881.578491,277.747620 881.781799,285.735352 
	C881.884460,289.770508 879.147705,291.143555 876.388550,292.707001 
	C849.178833,308.125061 821.964905,323.535919 794.757202,338.957520 
	C793.485657,339.678223 792.260315,340.480286 790.609497,341.492004 
	C812.620361,354.236511 834.237732,366.680603 855.777466,379.257660 
	C865.527649,384.950836 875.123657,390.908173 885.015015,397.414246 
	C885.312073,407.120819 885.383545,416.158752 885.455017,425.196716 
	C883.606079,428.851227 881.570557,426.276886 879.802429,425.231567 
	C854.050110,410.006531 828.333923,394.720215 802.601501,379.461365 
	C792.166992,373.273865 781.714111,367.117279 770.665649,360.588593 
	C769.064758,359.768311 768.067688,359.306061 766.480896,358.570404 
	C766.480896,381.070923 766.480896,403.002075 766.480896,424.933167 
	C765.918518,425.351929 765.356201,425.770660 764.187256,426.323181 
	C755.417114,426.395538 747.253601,426.334137 739.090088,426.272736 
	C738.734863,424.363617 738.071106,422.454803 738.069275,420.545319 
	C738.019409,367.677795 738.036743,314.810272 738.354370,261.198120 
	C746.095215,260.183807 753.534912,260.071259 760.950134,259.584686 
	C765.322021,259.297791 766.700745,260.825195 766.646362,265.250366 
	C766.419250,283.717804 766.538391,302.189606 766.552246,320.659790 
	C766.553040,321.733002 766.744873,322.806091 766.905762,324.484253 
	C768.007874,323.660034 768.638855,323.188110 769.269836,322.716217 
	C769.269836,322.716217 769.390686,322.710297 769.744751,322.564056 
	C771.563599,321.503235 773.028503,320.588623 774.493347,319.674011 
	C774.454712,319.473999 774.416138,319.273987 774.726929,319.290405 
	C775.536194,319.163818 775.996094,318.820831 776.455933,318.477814 
	C776.455933,318.477814 776.346863,318.457794 776.691162,318.395905 
	C778.772461,317.244232 780.509460,316.154480 782.246399,315.064697 
z"/>
<path fill="#FEFCFC" opacity="1.000000" stroke="none" 
	d="
M667.061768,145.402435 
	C666.327393,144.603027 664.949463,143.796356 664.958435,143.005371 
	C665.044739,135.380890 665.364441,127.759056 666.299561,119.837769 
	C674.767395,119.494606 682.553101,119.453712 690.338745,119.404961 
	C705.901245,119.307518 721.463745,119.205742 737.026245,119.105759 
	C737.354004,117.623367 737.962219,116.141937 737.967224,114.658447 
	C738.035278,94.587311 738.132507,74.514771 737.935608,54.445389 
	C737.892639,50.065102 739.243286,48.502094 743.615112,48.798557 
	C750.995605,49.299046 758.401794,49.420486 766.100708,50.360249 
	C766.404297,73.705498 766.404297,96.391808 766.404297,119.401749 
	C769.541077,119.401749 771.843384,119.394928 774.145752,119.402802 
	C795.748169,119.476616 817.350647,119.552956 838.953064,119.628555 
	C839.238586,127.391846 839.663025,135.156326 839.596313,142.916595 
	C839.589661,143.698624 836.620483,145.104401 835.013794,145.122467 
	C819.853760,145.292938 804.690918,145.224915 789.528931,145.225449 
	C782.060242,145.225708 774.591553,145.225494 766.449158,145.225494 
	C766.449158,147.332062 766.448608,149.106461 766.449219,150.880844 
	C766.456604,170.541473 766.313477,190.204102 766.577209,209.861298 
	C766.643494,214.801315 765.014404,216.335693 760.258728,215.995102 
	C755.285889,215.638947 750.267578,215.923004 745.269104,215.917389 
	C738.021790,215.909256 738.012390,215.905487 738.011108,208.410858 
	C738.007751,189.250076 738.018372,170.089279 738.006958,150.928497 
	C738.005981,149.269791 737.883301,147.611130 736.955200,145.623322 
	C713.082825,145.330261 690.072266,145.366348 667.061768,145.402435 
z"/>
<path fill="#FFFAF9" opacity="1.000000" stroke="none" 
	d="
M853.202271,144.999908 
	C853.205444,114.694832 853.296021,84.889252 853.120789,55.085232 
	C853.093323,50.421112 854.207031,48.410038 859.226868,48.744404 
	C865.194641,49.141907 871.212891,48.960896 877.202148,48.786507 
	C880.707458,48.684441 881.826904,50.119881 881.822571,53.520046 
	C881.755920,106.136742 881.755798,158.753571 881.818420,211.370270 
	C881.822571,214.896957 880.380249,216.048141 877.019409,215.963379 
	C870.862488,215.808121 864.690613,215.725937 858.540955,215.988480 
	C854.322693,216.168579 853.109863,214.508057 853.138000,210.437607 
	C853.287720,188.792603 853.204712,167.145966 853.202271,144.999908 
z"/>
<path fill="#CD0301" opacity="1.000000" stroke="none" 
	d="
M769.014709,322.320129 
	C768.638855,323.188110 768.007874,323.660034 766.905762,324.484253 
	C766.744873,322.806091 766.553040,321.733002 766.552246,320.659790 
	C766.538391,302.189606 766.419250,283.717804 766.646362,265.250366 
	C766.700745,260.825195 765.322021,259.297791 760.950134,259.584686 
	C753.534912,260.071259 746.095215,260.183807 738.335205,260.730225 
	C739.325073,260.006317 740.611511,258.198090 741.971680,258.140839 
	C748.928223,257.847961 755.903809,257.987976 762.872681,258.014282 
	C767.094849,258.030212 768.042114,260.661072 768.030457,264.306549 
	C767.975586,281.396912 767.983704,298.487671 768.044739,315.578003 
	C768.052307,317.694183 768.510315,319.808746 769.014709,322.320129 
z"/>
<path fill="#CD0301" opacity="1.000000" stroke="none" 
	d="
M838.705811,119.273384 
	C817.350647,119.552956 795.748169,119.476616 774.145752,119.402802 
	C771.843384,119.394928 769.541077,119.401749 766.404297,119.401749 
	C766.404297,96.391808 766.404297,73.705498 766.384888,50.554779 
	C766.913818,52.036739 767.925842,53.980110 767.938416,55.929932 
	C768.059570,74.707443 768.161743,93.488060 767.908813,112.262917 
	C767.845337,116.975510 769.416443,118.141098 773.894531,118.092964 
	C793.501465,117.882240 813.112000,117.974998 832.721008,118.039291 
	C834.634460,118.045563 836.546143,118.611862 838.705811,119.273384 
z"/>
<path fill="#CD0301" opacity="1.000000" stroke="none" 
	d="
M666.820312,145.612228 
	C690.072266,145.366348 713.082825,145.330261 736.555054,145.376694 
	C736.665283,146.215546 736.309692,147.635574 735.962891,147.633438 
	C713.643066,147.495346 691.323914,147.245209 669.005005,146.985001 
	C668.204041,146.975662 667.403625,146.775330 666.608337,146.633820 
	C666.518250,146.617783 666.405212,146.403656 666.406738,146.282745 
	C666.408875,146.128433 666.516602,145.975525 666.820312,145.612228 
z"/>
<path fill="#CD0301" opacity="1.000000" stroke="none" 
	d="
M737.007812,118.802200 
	C721.463745,119.205742 705.901245,119.307518 690.338745,119.404961 
	C682.553101,119.453712 674.767395,119.494606 666.511719,119.568291 
	C668.001526,119.064735 669.958740,118.080574 671.921753,118.069016 
	C691.501770,117.953735 711.082764,117.983620 730.663391,118.020508 
	C732.772339,118.024483 734.880676,118.331963 737.007812,118.802200 
z"/>
<path fill="#CD0301" opacity="1.000000" stroke="none" 
	d="
M766.825378,424.680145 
	C766.480896,403.002075 766.480896,381.070923 766.480896,358.570404 
	C768.067688,359.306061 769.064758,359.768311 770.340088,360.564514 
	C769.747864,362.744202 768.141907,364.581848 768.121460,366.436920 
	C767.930176,383.845703 768.036072,401.257568 767.974487,418.668243 
	C767.967712,420.588776 767.450378,422.507507 766.825378,424.680145 
z"/>
<path fill="#CD0301" opacity="1.000000" stroke="none" 
	d="
M879.317383,627.683289 
	C889.388733,627.372253 899.691406,627.426941 910.460449,627.457825 
	C909.965332,627.949219 909.008545,628.901428 908.041748,628.911621 
	C899.118652,629.006104 890.193665,628.953735 881.269775,628.879761 
	C880.693787,628.875000 880.122314,628.338257 879.317383,627.683289 
z"/>
<path fill="#CD0301" opacity="1.000000" stroke="none" 
	d="
M712.322998,627.656372 
	C722.062439,627.334229 732.025330,627.384521 742.453979,627.417236 
	C741.965698,627.926575 741.016846,628.899597 740.056946,628.910645 
	C731.457581,629.009155 722.856140,628.955139 714.255798,628.879272 
	C713.683533,628.874207 713.116089,628.324951 712.322998,627.656372 
z"/>
<path fill="#CD0301" opacity="1.000000" stroke="none" 
	d="
M885.698608,425.395325 
	C885.383545,416.158752 885.312073,407.120819 885.236145,397.625031 
	C885.816528,398.225037 886.889709,399.274353 886.908386,400.342072 
	C887.048706,408.375610 886.995667,416.412842 886.934875,424.448395 
	C886.932007,424.832703 886.287781,425.212189 885.698608,425.395325 
z"/>
<path fill="#CD0301" opacity="1.000000" stroke="none" 
	d="
M739.313782,426.645935 
	C747.253601,426.334137 755.417114,426.395538 764.008301,426.520569 
	C764.428345,426.991150 764.420715,427.398163 764.413147,427.805145 
	C756.121216,427.543121 747.829346,427.281097 739.313782,426.645935 
z"/>
<path fill="#CD0301" opacity="1.000000" stroke="none" 
	d="
M788.831177,310.920197 
	C787.249878,312.219452 785.435364,313.364227 783.314636,314.606262 
	C784.871643,313.390900 786.734802,312.078308 788.831177,310.920197 
z"/>
<path fill="#CD0301" opacity="1.000000" stroke="none" 
	d="
M781.860107,315.077881 
	C780.509460,316.154480 778.772461,317.244232 776.711548,318.447449 
	C778.082947,317.404297 779.778381,316.247711 781.860107,315.077881 
z"/>
<path fill="#CD0301" opacity="1.000000" stroke="none" 
	d="
M774.136353,319.549194 
	C773.028503,320.588623 771.563599,321.503235 769.783691,322.517822 
	C770.905579,321.553345 772.342529,320.488861 774.136353,319.549194 
z"/>
<path fill="#CD0301" opacity="1.000000" stroke="none" 
	d="
M776.114136,318.426086 
	C775.996094,318.820831 775.536194,319.163818 774.798462,319.587830 
	C774.937805,319.237335 775.355103,318.805847 776.114136,318.426086 
z"/>
<path fill="#D72309" opacity="1.000000" stroke="none" 
	d="
M783.440796,550.177185 
	C792.569824,530.938477 801.883911,512.052551 811.606445,492.338531 
	C821.347717,512.059021 830.673828,530.939209 840.351013,550.529968 
	C821.030090,550.529968 802.328003,550.529968 783.440796,550.177185 
z"/>
</svg>