<svg width="442.492431640625px" height="249.80003662109374px" xmlns="http://www.w3.org/2000/svg" viewBox="28.7537841796875 -49.90001831054687 442.492431640625 249.80003662109374" style="background:#f2eddb" preserveAspectRatio="xMidYMid"><defs><filter id="editing-vintage" x="-100%" y="-100%" width="300%" height="300%"><feConvolveMatrix in="SourceGraphic" result="extrude" order="9,9" divisor="1" kernelMatrix="1,0,0,0,0,0,0,0,0,0,1,0,0,0,0,0,0,0,0,0,1,0,0,0,0,0,0,0,0,0,1,0,0,0,0,0,0,0,0,0,1,0,0,0,0,0,0,0,0,0,1,0,0,0,0,0,0,0,0,0,1,0,0,0,0,0,0,0,0,0,1,0,0,0,0,0,0,0,0,0,1"> </feConvolveMatrix><feFlood flood-color="#900" result="flood-extrude"></feFlood><feComposite operator="in" in="flood-extrude" in2="extrude" result="extrude-color"></feComposite><feOffset dx="5" dy="5" in="extrude-color" result="extrude-offset"></feOffset><feColorMatrix in="SourceGraphic" result="stroke" type="matrix" values="0 0 0 0 0 0 0 0 0 0 0 0 0 0 0 0 1 0 0 0 "></feColorMatrix><feColorMatrix in="SourceGraphic" result="fill" type="matrix" values="0 0 0 0 0 0 0 0 0 0 0 0 0 0 0 1 0 0 1 0 "></feColorMatrix><feConvolveMatrix in="stroke" result="inner-shadow" order="5,5" divisor="1" kernelMatrix="1 0 0 0 0 0 1 0 0 0 0 0 1 0 0 0 0 0 1 0 0 0 0 0 1 "></feConvolveMatrix><feOffset dx="1" dy="1" in="inner-shadow" result="offset"></feOffset><feComposite operator="in" in="offset" in2="SourceAlpha" result="comp"></feComposite><feFlood flood-color="#000" result="flood3"></feFlood><feComposite operator="in" in="flood3" in2="comp" result="comp2"></feComposite><feColorMatrix in="comp2" result="comp3" type="matrix" values="1 0 0 0 0 0 1 0 0 0 0 0 1 0 0 0 0 0 0.5 0 "></feColorMatrix><feFlood flood-color="#f00" result="flood1"></feFlood><feComposite operator="in" in="flood1" in2="fill" result="fill2"></feComposite><feFlood flood-color="#fff" result="flood2"></feFlood><feComposite operator="in" in="flood2" in2="stroke" result="stroke2"></feComposite><feMerge result="obj"><feMergeNode in="extrude-offset"></feMergeNode><feMergeNode in="fill2"></feMergeNode><feMergeNode in="comp3"></feMergeNode></feMerge><feConvolveMatrix in="SourceAlpha" result="shadow" order="9,9" divisor="1" kernelMatrix="1,0,0,0,0,0,0,0,0,0,1,0,0,0,0,0,0,0,0,0,1,0,0,0,0,0,0,0,0,0,1,0,0,0,0,0,0,0,0,0,1,0,0,0,0,0,0,0,0,0,1,0,0,0,0,0,0,0,0,0,1,0,0,0,0,0,0,0,0,0,1,0,0,0,0,0,0,0,0,0,1"></feConvolveMatrix><feOffset dx="15" dy="15" in="shadow" result="shadow-offset"></feOffset><feFlood flood-color="#444" result="flood-shadow"></feFlood><feComposite operator="in" in="flood-shadow" in2="shadow-offset" result="shadow-color"></feComposite><feMerge><feMergeNode in="shadow-color"></feMergeNode><feMergeNode in="obj"></feMergeNode></feMerge></filter></defs><g transform="translate(-9,-9)"><g filter="url(#editing-vintage)"><g transform="translate(96.33454221487045, 125.75000762939453)"><path d="M59.01-66.99L59.01-66.99L59.01-66.99Q61.19-71.34 61.19-75.40L61.19-75.40L61.19-75.40Q61.19-79.46 60.75-81.71L60.75-81.71L60.75-81.71Q60.32-83.95 59.30-85.69L59.30-85.69L59.30-85.69Q57.13-89.46 52.78-89.46L52.78-89.46L52.78-89.46Q47.41-89.46 43.06-85.55L43.06-85.55L43.06-85.55Q38.42-81.49 38.42-75.11L38.42-75.11L38.42-75.11Q38.42-71.05 41.25-67.93L41.25-67.93L41.25-67.93Q44.08-64.81 48.43-61.91L48.43-61.91L48.43-61.91Q52.78-59.01 57.71-56.11L57.71-56.11L57.71-56.11Q62.64-53.21 66.99-49.73L66.99-49.73L66.99-49.73Q76.99-41.76 76.99-31.03L76.99-31.03L76.99-31.03Q76.99-23.78 73.15-17.62L73.15-17.62L73.15-17.62Q69.31-11.46 62.93-6.96L62.93-6.96L62.93-6.96Q49.01 2.90 30.59 2.90L30.59 2.90L30.59 2.90Q15.66 2.90 7.97-1.96L7.97-1.96L7.97-1.96Q0.29-6.81 0.29-14.21L0.29-14.21L0.29-14.21Q0.29-27.40 10.58-30.74L10.58-30.74L10.58-30.74Q13.48-31.75 17.91-31.75L17.91-31.75L17.91-31.75Q22.33-31.75 27.40-29.87L27.40-29.87L27.40-29.87Q25.08-23.92 25.08-18.56L25.08-18.56L25.08-18.56Q25.08-6.96 33.35-6.96L33.35-6.96L33.35-6.96Q38.71-6.96 43.14-10.88L43.14-10.88L43.14-10.88Q47.56-14.79 47.56-19.21L47.56-19.21L47.56-19.21Q47.56-23.63 44.73-26.82L44.73-26.82L44.73-26.82Q41.90-30.01 37.70-32.55L37.70-32.55L37.70-32.55Q33.49-35.09 28.64-37.55L28.64-37.55L28.64-37.55Q23.78-40.02 19.57-43.50L19.57-43.50L19.57-43.50Q9.71-51.47 9.71-64.23L9.71-64.23L9.71-64.23Q9.71-72.50 13.77-78.95L13.77-78.95L13.77-78.95Q17.83-85.41 24.36-89.75L24.36-89.75L24.36-89.75Q37.41-98.60 53.43-98.60L53.43-98.60L53.43-98.60Q69.45-98.60 77.21-93.81L77.21-93.81L77.21-93.81Q84.97-89.03 84.97-80.91L84.97-80.91L84.97-80.91Q84.97-73.80 79.46-69.31L79.46-69.31L79.46-69.31Q74.67-65.54 68.88-65.54L68.88-65.54L68.88-65.54Q63.07-65.54 59.01-66.99ZM91.64-89.90L91.64-89.90L91.64-89.90Q93.67-93.96 98.09-96.21L98.09-96.21L98.09-96.21Q102.52-98.45 108.60-98.45L108.60-98.45L108.60-98.45Q118.17-98.45 123.90-91.57L123.90-91.57L123.90-91.57Q129.63-84.68 129.63-69.60L129.63-69.60L129.63-17.83L162.83-95.55L179.94-95.55L183.86-22.18L183.43-17.98L217.94-95.55L237.80-95.55L191.40 0L160.51 0L157.62-44.08L138.47 0L103.53 0L99.18-69.60L99.18-69.60Q98.74-77.43 96.64-82.58L96.64-82.58L96.64-82.58Q94.54-87.72 91.64-89.90ZM293.48-22.33L293.48-22.33L293.48-22.33Q296.23-18.85 296.23-13.19L296.23-13.19L296.23-13.19Q296.23-5.36 290.43-1.23L290.43-1.23L290.43-1.23Q284.63 2.90 275.50 2.90L275.50 2.90L275.50 2.90Q270.28 2.90 262.30 1.74L262.30 1.74L262.30 1.74Q246.64-0.72 241.86-0.72L241.86-0.72L241.86-0.72Q237.07-0.72 235.19-0.51L235.19-0.51L235.19-0.51Q233.30-0.29 230.26 0L230.26 0L248.09-95.70L310.59-95.70L310.59-95.70Q310.59-86.85 306.31-82.21L306.31-82.21L306.31-82.21Q302.03-77.57 293.62-77.57L293.62-77.57L293.62-77.57Q285.21-77.57 276.66-81.49L276.66-81.49L272.16-56.11L297.97-56.11L297.97-56.11Q297.97-48.43 294.20-44.15L294.20-44.15L294.20-44.15Q290.43-39.88 284.13-39.88L284.13-39.88L284.13-39.88Q277.82-39.88 273.90-41.32L273.90-41.32L273.90-41.32Q269.99-42.77 269.55-43.21L269.55-43.21L264.33-15.80L264.33-15.80Q267.81-15.37 274.34-15.37L274.34-15.37L274.34-15.37Q285.50-15.37 293.48-22.33Z" fill="#f00" stroke="#0f0" stroke-width="1.8"></path></g></g><g><g transform="translate(96.33515256643295, 125.7500057220459)"><path d="M59.01-66.99L59.01-66.99L59.01-66.99Q61.19-71.34 61.19-75.40L61.19-75.40L61.19-75.40Q61.19-79.46 60.75-81.71L60.75-81.71L60.75-81.71Q60.32-83.95 59.30-85.69L59.30-85.69L59.30-85.69Q57.13-89.46 52.78-89.46L52.78-89.46L52.78-89.46Q47.41-89.46 43.06-85.55L43.06-85.55L43.06-85.55Q38.42-81.49 38.42-75.11L38.42-75.11L38.42-75.11Q38.42-71.05 41.25-67.93L41.25-67.93L41.25-67.93Q44.08-64.81 48.43-61.91L48.43-61.91L48.43-61.91Q52.78-59.01 57.71-56.11L57.71-56.11L57.71-56.11Q62.64-53.21 66.99-49.73L66.99-49.73L66.99-49.73Q76.99-41.76 76.99-31.03L76.99-31.03L76.99-31.03Q76.99-23.78 73.15-17.62L73.15-17.62L73.15-17.62Q69.31-11.46 62.93-6.96L62.93-6.96L62.93-6.96Q49.01 2.90 30.59 2.90L30.59 2.90L30.59 2.90Q15.66 2.90 7.97-1.96L7.97-1.96L7.97-1.96Q0.29-6.81 0.29-14.21L0.29-14.21L0.29-14.21Q0.29-27.40 10.58-30.74L10.58-30.74L10.58-30.74Q13.48-31.75 17.91-31.75L17.91-31.75L17.91-31.75Q22.33-31.75 27.40-29.87L27.40-29.87L27.40-29.87Q25.08-23.92 25.08-18.56L25.08-18.56L25.08-18.56Q25.08-6.96 33.35-6.96L33.35-6.96L33.35-6.96Q38.71-6.96 43.14-10.88L43.14-10.88L43.14-10.88Q47.56-14.79 47.56-19.21L47.56-19.21L47.56-19.21Q47.56-23.63 44.73-26.82L44.73-26.82L44.73-26.82Q41.90-30.01 37.70-32.55L37.70-32.55L37.70-32.55Q33.49-35.09 28.64-37.55L28.64-37.55L28.64-37.55Q23.78-40.02 19.57-43.50L19.57-43.50L19.57-43.50Q9.71-51.47 9.71-64.23L9.71-64.23L9.71-64.23Q9.71-72.50 13.77-78.95L13.77-78.95L13.77-78.95Q17.83-85.41 24.36-89.75L24.36-89.75L24.36-89.75Q37.41-98.60 53.43-98.60L53.43-98.60L53.43-98.60Q69.45-98.60 77.21-93.81L77.21-93.81L77.21-93.81Q84.97-89.03 84.97-80.91L84.97-80.91L84.97-80.91Q84.97-73.80 79.46-69.31L79.46-69.31L79.46-69.31Q74.67-65.54 68.88-65.54L68.88-65.54L68.88-65.54Q63.07-65.54 59.01-66.99ZM91.64-89.90L91.64-89.90L91.64-89.90Q93.67-93.96 98.09-96.21L98.09-96.21L98.09-96.21Q102.52-98.45 108.60-98.45L108.60-98.45L108.60-98.45Q118.17-98.45 123.90-91.57L123.90-91.57L123.90-91.57Q129.63-84.68 129.63-69.60L129.63-69.60L129.63-17.83L162.83-95.55L179.94-95.55L183.86-22.18L183.43-17.98L217.94-95.55L237.80-95.55L191.40 0L160.51 0L157.62-44.08L138.47 0L103.53 0L99.18-69.60L99.18-69.60Q98.74-77.43 96.64-82.58L96.64-82.58L96.64-82.58Q94.54-87.72 91.64-89.90ZM293.48-22.33L293.48-22.33L293.48-22.33Q296.23-18.85 296.23-13.19L296.23-13.19L296.23-13.19Q296.23-5.36 290.43-1.23L290.43-1.23L290.43-1.23Q284.63 2.90 275.50 2.90L275.50 2.90L275.50 2.90Q270.28 2.90 262.30 1.74L262.30 1.74L262.30 1.74Q246.64-0.72 241.86-0.72L241.86-0.72L241.86-0.72Q237.07-0.72 235.19-0.51L235.19-0.51L235.19-0.51Q233.30-0.29 230.26 0L230.26 0L248.09-95.70L310.59-95.70L310.59-95.70Q310.59-86.85 306.31-82.21L306.31-82.21L306.31-82.21Q302.03-77.57 293.62-77.57L293.62-77.57L293.62-77.57Q285.21-77.57 276.66-81.49L276.66-81.49L272.16-56.11L297.97-56.11L297.97-56.11Q297.97-48.43 294.20-44.15L294.20-44.15L294.20-44.15Q290.43-39.88 284.13-39.88L284.13-39.88L284.13-39.88Q277.82-39.88 273.90-41.32L273.90-41.32L273.90-41.32Q269.99-42.77 269.55-43.21L269.55-43.21L264.33-15.80L264.33-15.80Q267.81-15.37 274.34-15.37L274.34-15.37L274.34-15.37Q285.50-15.37 293.48-22.33Z" fill="none" stroke="#fff" stroke-width="2.1"></path></g></g></g><style>text {
  font-size: 64px;
  font-family: Arial Black;
  dominant-baseline: central;
  text-anchor: middle;
}</style></svg>